#N canvas 0 22 1280 752 10;
#X obj 523 -767 tgl 15 0 empty empty empty 17 7 0 10 -204800 -1 -1
1 1;
#X obj 523 -786 bng 15 250 50 0 empty empty empty 17 7 0 10 -204800
-1 -1;
#X floatatom 492 -717 5 0 0 0 - - -;
#X floatatom 531 -717 5 0 0 0 - - -;
#X floatatom 571 -717 5 0 0 0 - - -;
#X obj 523 -744 tgl 15 0 empty empty empty 17 7 0 10 -204800 -1 -1
1 1;
#X obj 698 -768 tgl 15 0 empty empty empty 17 7 0 10 -204800 -1 -1
1 1;
#X obj 698 -787 bng 15 250 50 0 empty empty empty 17 7 0 10 -204800
-1 -1;
#X floatatom 650 -717 5 0 0 0 - - -;
#X floatatom 693 -719 5 0 0 0 - - -;
#X floatatom 735 -718 5 0 0 0 - - -;
#X obj 698 -748 tgl 15 0 empty empty empty 17 7 0 10 -204800 -1 -1
1 1;
#X obj 402 -711 tgl 15 0 empty empty empty 17 7 0 10 -204800 -1 -1
0 1;
#X obj 506 -863 hsl 128 15 0 1 0 0 empty empty empty -2 -8 0 10 -204800
-1 -1 5300 1;
#X obj 486 -633 tgl 15 0 empty empty empty 17 7 0 10 -204800 -1 -1
0 1;
#X obj 486 -597 tgl 15 0 empty empty empty 17 7 0 10 -261234 -1 -1
1 1;
#X text 321 -664 LUMA OFFSET;
#X msg 444 -599 0;
#X obj 292 -634 hsl 128 15 0 200 0 0 empty empty empty -2 -8 0 10 -204800
-1 -1 0 1;
#X obj 289 -599 hsl 128 15 -350 350 0 1 empty empty empty -8 0 0 1.65654e+07
-261234 -1 -1 6900 0;
#X obj 697 -609 tgl 15 0 empty empty empty 0 -6 0 8 -204800 -1 -1 0
1;
#X obj 627 -642 hsl 128 15 1 20 0 0 empty empty empty -2 -8 0 10 -204800
-1 -1 0 1;
#X text 530 -887 SIGNAL MIXER;
#X text 342 -802 GEMWIN ACTIVATE;
#X text 429 -774 Create;
#X text 428 -744 Destroy;
#X text 429 -713 Audio;
#X text 515 -824 Input 1;
#X text 679 -824 Input 2;
#X text 475 -766 Render;
#X text 489 -744 Play;
#X text 487 -787 Open;
#X text 513 -635 Smooth;
#X text 513 -599 Fill;
#X text 503 -697 F;
#X text 582 -699 W;
#X text 543 -698 H;
#X text 661 -697 F;
#X text 740 -699 W;
#X text 701 -698 H;
#X text 656 -666 BIQUAD FILTER;
#X text 579 -637 Colour;
#X obj 402 -776 bng 15 250 50 0 empty empty empty 17 7 0 10 -204800
-1 -1;
#X obj 401 -742 bng 15 250 50 0 empty empty empty 17 7 0 10 -204800
-1 -1;
#X obj 492 -515 gemhead;
#X obj 493 -480 pix_film;
#X obj 558 -516 openpanel;
#X msg 558 -479 open \$1;
#X obj 515 -448 unpack f f f;
#X msg 456 -448 auto \$1;
#X obj 605 -448 bng 15 250 50 0 empty empty empty 17 7 0 10 -262144
-1 -1;
#X obj 741 -507 gemhead;
#X obj 746 -474 pix_film;
#X obj 809 -509 openpanel;
#X msg 811 -474 open \$1;
#X obj 768 -442 unpack f f f;
#X msg 708 -442 auto \$1;
#X obj 858 -442 bng 15 250 50 0 empty empty empty 17 7 0 10 -262144
-1 -1;
#X obj 306 -314 pix_texture;
#X obj 642 -494 pix_mix 0;
#X msg -161 -293 \; pd dsp \$1;
#X obj -181 -254 adc~;
#X obj -145 -254 env~;
#X floatatom -112 -253 5 0 0 0 - - -;
#X obj 920 -317 pix_lumaoffset;
#X msg 962 -347 smooth \$1;
#X msg 899 -347 fill \$1;
#X floatatom 492 -358 3 0 1 2 fb0 - -;
#X floatatom 516 -358 3 0 1 2 fb1 - -;
#X floatatom 540 -358 3 0 1 2 fb2 - -;
#X floatatom 569 -358 3 0 1 2 ff1 - -;
#X floatatom 593 -358 3 0 1 2 ff2 - -;
#N canvas 0 22 450 300 init 0;
#X msg 175 214 0.3;
#X msg 247 215 0.6;
#X obj 104 258 outlet;
#X obj 154 258 outlet;
#X obj 204 258 outlet;
#X obj 254 258 outlet;
#X obj 304 258 outlet;
#X obj 244 59 inlet;
#X obj 388 158 t b;
#X msg 378 201 1;
#X msg 413 201 0;
#X obj 246 88 route 1;
#X msg 104 214 0.2;
#X msg 140 215 0.5;
#X obj 353 258 outlet;
#X msg 277 215 0.2;
#X msg 312 213 0.2;
#X obj 238 127 t b;
#X obj 193 105 t b b;
#X obj 277 115 t b b;
#X msg 277 135 1;
#X connect 0 0 4 0;
#X connect 1 0 5 0;
#X connect 7 0 11 0;
#X connect 8 0 9 0;
#X connect 8 0 10 0;
#X connect 9 0 5 0;
#X connect 10 0 3 0;
#X connect 10 0 4 0;
#X connect 10 0 6 0;
#X connect 10 0 14 0;
#X connect 11 0 18 0;
#X connect 11 1 19 0;
#X connect 12 0 2 0;
#X connect 13 0 3 0;
#X connect 15 0 6 0;
#X connect 16 0 14 0;
#X connect 17 0 13 0;
#X connect 17 0 0 0;
#X connect 17 0 1 0;
#X connect 17 0 15 0;
#X connect 17 0 16 0;
#X connect 18 0 12 0;
#X connect 18 1 17 0;
#X connect 19 0 20 0;
#X connect 19 1 8 0;
#X connect 20 0 2 0;
#X restore 536 -410 pd init;
#X msg 571 -305 set;
#X obj 486 -305 pix_biquad;
#X floatatom 617 -358 3 0 1 2 ff3 - -;
#X obj 492 -340 pack 1 0 0 1 0 0;
#X msg 626 -609 1;
#X msg 445 -633 0;
#X floatatom 938 -639 5 0 64 1 - - -;
#X obj 918 -378 pix_kaleidoscope;
#X floatatom 942 -602 5 0 0 1 - - -;
#X obj 795 -638 hsl 128 15 0 127 0 0 empty empty empty -2 -8 0 10 -204800
-1 -1 0 1;
#X obj 795 -604 hsl 128 15 0 127 0 0 empty empty empty -2 -8 0 10 -261234
-1 -1 0 1;
#X text 985 -606 Output Angle;
#X text 984 -641 Segments;
#X text 895 -669 REFRACTALS;
#X text 725 -610 On/Off;
#X text 655 -609 Reset;
#X msg 576 -745 0;
#X msg 730 -751 0;
#X text 542 -744 Reset;
#X text 799 -317 LUMA OFFSET;
#X text 808 -378 FRACTALS;
#X text 426 -362 BIQUAD;
#X obj -68 -282 adc~;
#X obj -68 -254 fiddle~ 1024 1 20 3;
#X obj 796 -719 hsl 128 15 -20 20 0 0 empty empty empty -2 -8 0 10
-261234 -1 -1 0 1;
#X msg 138 -267 \; pd dsp 1;
#X obj 138 -295 loadbang;
#X obj 794 -773 hsl 128 15 0 80 0 0 empty empty empty -2 -8 0 10 -204800
-1 -1 0 1;
#X msg 101 -293 40;
#X obj 63 -292 - 40;
#X text -31 -319 SOUND REACTOR;
#X floatatom 939 -720 5 0 0 0 - - -;
#X obj 64 -255 average 20;
#X obj 795 -746 hsl 128 15 0 100 0 0 empty empty empty -2 -8 0 10 -204800
-1 -1 0 1;
#X text 654 -862 Signal Fader;
#X text 933 -775 Sound Threshold;
#X text 950 -747 Sound Smooth;
#X msg 984 -720 0;
#X msg 984 -671 0;
#X obj 307 -265 rectangle 16 9;
#X msg 21 -422 create;
#X msg 19 -369 destroy;
#X obj 348 -769 tgl 15 0 empty empty empty 0 -6 0 10 -261234 -1 -1
0 1;
#X msg 76 -396 fullscreen \$1;
#X msg -85 -416 dimen 1200 300;
#X obj 20 -394 gemwin;
#X obj -160 -417 loadbang;
#X obj 348 -741 tgl 15 0 empty empty empty 17 9 0 10 -261234 -1 -1
2 2;
#X msg -89 -386 dimen 1920 480;
#X obj -140 -384 sel 2;
#X obj 347 -713 tgl 15 0 empty empty empty 17 7 0 10 -261234 -1 -1
1 1;
#X text 272 -744 Display 2;
#X text 275 -715 Render;
#X text 275 -772 Display 1;
#X text -24 -452 GEMWIN;
#X text 402 -484 SIGNAL ONE;
#X text 881 -484 SIGNAL TWO;
#X text 834 -796 SOUND;
#X connect 0 0 44 0;
#X connect 1 0 46 0;
#X connect 5 0 49 0;
#X connect 6 0 51 0;
#X connect 7 0 53 0;
#X connect 11 0 56 0;
#X connect 12 0 60 0;
#X connect 13 0 59 2;
#X connect 14 0 65 0;
#X connect 15 0 66 0;
#X connect 17 0 19 0;
#X connect 18 0 64 2;
#X connect 19 0 64 1;
#X connect 20 0 72 0;
#X connect 21 0 67 0;
#X connect 42 0 113 0;
#X connect 43 0 114 0;
#X connect 44 0 45 0;
#X connect 45 0 59 0;
#X connect 45 1 48 0;
#X connect 45 2 50 0;
#X connect 46 0 47 0;
#X connect 47 0 45 0;
#X connect 48 0 2 0;
#X connect 48 1 3 0;
#X connect 48 2 4 0;
#X connect 49 0 45 0;
#X connect 51 0 52 0;
#X connect 52 0 59 1;
#X connect 52 1 55 0;
#X connect 52 2 57 0;
#X connect 53 0 54 0;
#X connect 54 0 52 0;
#X connect 55 0 8 0;
#X connect 55 1 9 0;
#X connect 55 2 10 0;
#X connect 56 0 52 0;
#X connect 58 0 112 0;
#X connect 59 0 80 0;
#X connect 61 0 62 0;
#X connect 62 0 63 0;
#X connect 64 0 74 0;
#X connect 65 0 64 0;
#X connect 66 0 64 0;
#X connect 67 0 76 0;
#X connect 68 0 76 1;
#X connect 69 0 76 2;
#X connect 70 0 76 3;
#X connect 71 0 76 4;
#X connect 72 0 67 0;
#X connect 72 1 68 0;
#X connect 72 2 69 0;
#X connect 72 3 70 0;
#X connect 72 4 71 0;
#X connect 72 5 75 0;
#X connect 73 0 74 0;
#X connect 74 0 58 0;
#X connect 75 0 76 5;
#X connect 76 0 74 0;
#X connect 77 0 21 0;
#X connect 78 0 18 0;
#X connect 79 0 80 1;
#X connect 80 0 64 0;
#X connect 81 0 80 4;
#X connect 82 0 79 0;
#X connect 83 0 81 0;
#X connect 89 0 45 1;
#X connect 90 0 52 1;
#X connect 95 0 96 0;
#X connect 96 3 102 0;
#X connect 97 0 104 0;
#X connect 99 0 98 0;
#X connect 99 0 101 0;
#X connect 100 0 102 1;
#X connect 101 0 100 0;
#X connect 102 0 105 0;
#X connect 104 0 79 0;
#X connect 104 0 81 0;
#X connect 110 0 104 0;
#X connect 111 0 79 0;
#X connect 111 0 81 0;
#X connect 113 0 118 0;
#X connect 114 0 118 0;
#X connect 115 0 116 0;
#X connect 116 0 118 0;
#X connect 117 0 118 0;
#X connect 119 0 121 0;
#X connect 120 0 116 0;
#X connect 120 0 122 0;
#X connect 121 0 118 0;
#X connect 122 0 121 0;
#X connect 123 0 118 0;
